# xmcd CD database file
#
# Track frame offsets:
#	150
#	13388
#	29308
#	41068
#	54008
#	67706
#	81710
#	94771
#	113077
#	124030
#	136082
#	150098
#	162285
#	177160
#
# Disc length: 2558 seconds
#
# Revision: 3
# Processed by: cddbd v1.5.2PL0 Copyright (c) Steve Scherf et al.
# Submitted via: CDex 1.51
#
DISCID=a609fc0e
DTITLE=MINGUS Charles - West coast
DYEAR=1900
DGENRE=Jazz
TTITLE0=Shuffle bass boogie
TTITLE1=Lyons roar
TTITLE2=Boppin in Boston
TTITLE3=Mingus fingers
TTITLE4=Bedspread
TTITLE5=Pennies from heaven
TTITLE6=Say it isnt so
TTITLE7=Story of love
TTITLE8=Inspiration
TTITLE9=Swinging on echo
TTITLE10=The story of love
TTITLE11=Hes gone
TTITLE12=Those foolish things
TTITLE13=This subdues my position
EXTD=
EXTT0=
EXTT1=
EXTT2=
EXTT3=
EXTT4=
EXTT5=
EXTT6=
EXTT7=
EXTT8=
EXTT9=
EXTT10=
EXTT11=
EXTT12=
EXTT13=
PLAYORDER=
